<svg xmlns="http://www.w3.org/2000/svg" viewBox="0 0 32 32"><title>BUSINESS</title><g id="_03.FOCUS" data-name="03.FOCUS"><path d="M18,26.82v2A13.05,13.05,0,0,0,28.85,18h-2A11,11,0,0,1,18,26.82Z"/><path d="M5.18,18h-2A13.05,13.05,0,0,0,14,28.85v-2A11,11,0,0,1,5.18,18Z"/><path d="M26.82,14h2A13.05,13.05,0,0,0,18,3.15v2A11,11,0,0,1,26.82,14Z"/><path d="M14,5.18v-2A13.05,13.05,0,0,0,3.15,14h2A11,11,0,0,1,14,5.18Z"/><path d="M16.6,15.9a2,2,0,1,0-1.21,0,3.33,3.33,0,0,0-2.72,3.27,1,1,0,0,0,1,1h4.66a1,1,0,0,0,1-1A3.33,3.33,0,0,0,16.6,15.9Z"/><path d="M30,15H23.93A8,8,0,0,0,17,8.07V2a1,1,0,0,0-2,0V8.07A8,8,0,0,0,8.07,15H2a1,1,0,0,0,0,2H8.07A8,8,0,0,0,15,23.93V30a1,1,0,0,0,2,0V23.93A8,8,0,0,0,23.93,17H30a1,1,0,0,0,0-2ZM16,22a6,6,0,1,1,6-6A6,6,0,0,1,16,22Z"/></g></svg>