<?xml version="1.0" encoding="utf-8"?>
<!-- Generator: Adobe Illustrator 23.0.2, SVG Export Plug-In . SVG Version: 6.00 Build 0)  -->
<svg version="1.1" id="Layer_1" xmlns="http://www.w3.org/2000/svg" xmlns:xlink="http://www.w3.org/1999/xlink" x="0px" y="0px"
	 viewBox="0 0 246.3496 276.4289" enable-background="new 0 0 246.3496 276.4289" xml:space="preserve">
<g>
	<path d="M118.7774,232.3268c-2-5.4736-6.3184-9.769-12.8145-11.601v-0.4737c7.8184-3.4355,11.4922-10.3066,11.4922-17.415
		c0-5.5684-1.7773-10.8984-6.043-14.4531c-5.5683-4.7383-12.7949-5.6866-20.2578-5.6866c-6.6347,0-12.9121,0.4737-17.6523,1.5401
		v78.3086c3.5547,0.5918,8.5312,0.9472,14.4531,0.9472c13.3887,0,21.4434-2.8437,26.1816-8.0556
		c3.7188-3.835,5.8301-8.9317,5.9082-15.2744c3.0899,13.7441,10.4278,23.6855,23.4727,23.6855
		c15.1641,0,25.8262-12.2021,25.8262-42.293c0-2.8173-0.1309-5.706-0.4219-8.5756c1.9824,5.2309,6.2676,10.5727,13.6914,15.0913
		c6.752,4.3828,10.3066,7.2265,10.3066,13.0312c0,5.2129-3.6738,9.0039-10.9003,9.0039c-4.3829,0-9.9512-1.3027-13.1504-3.0801
		l-2.25,13.3868c2.7246,1.54,8.8847,3.1992,15.2832,3.1992c12.3672,0,21.7168-6.0977,25.0078-15.9453l-2.1426,12.7461
		c2.7246,1.54,8.8848,3.1992,15.2832,3.1992c15.5195,0,26.2988-9.5967,26.2988-24.168c0-8.4121-3.791-16.4678-14.4531-22.8652
		c-8.5293-5.2129-10.8984-7.7002-10.8984-12.4395c0-4.2646,3.1992-8.2929,9.832-8.2929c4.3848,0,7.8203,1.3037,10.0703,2.7255
		l2.4883-13.3876c-2.252-1.4209-7.2266-2.8428-12.5586-2.8428c-16.584,0-25.1152,10.6621-25.1152,23.457
		c0,7.2266,4.1464,15.6377,15.0468,22.2725c6.752,4.3828,10.3067,7.2265,10.3067,13.0312c0,5.2129-3.6738,9.0039-10.9004,9.0039
		c-4.3438,0-9.8477-1.2817-13.0586-3.0351c0.7148-2.3482,1.0918-4.9004,1.0918-7.627c0-8.4121-3.791-16.4678-14.4531-22.8652
		c-8.5293-5.2129-10.8985-7.7002-10.8985-12.4395c0-4.2646,3.1992-8.2929,9.8321-8.2929c4.3847,0,7.8203,1.3037,10.0703,2.7255
		l2.4883-13.3876c-2.252-1.4209-7.2266-2.8428-12.5586-2.8428c-16.127,0-24.6348,10.083-25.0938,22.4043
		c-2.8418-12.3833-9.5391-22.6416-22.8848-22.6416c-17.7714,0-26.4199,18.8369-26.4199,40.6347
		C118.2832,226.0153,118.4453,229.2277,118.7774,232.3268z M89.0215,194.7814c0.9492-0.3554,2.3691-0.4736,4.1465-0.4736
		c6.2793,0,9.0039,4.502,9.0039,10.3066c0,6.5157-4.2637,11.2539-9.832,11.2539h-3.3184V194.7814z M92.4571,251.5285
		c-1.3028,0-2.4864,0-3.4356-0.2373v-23.9307h3.3184c6.1601,0,11.6093,4.1465,11.6093,12.2022
		C103.9492,247.6183,98.8555,251.5285,92.4571,251.5285z M143.9922,195.6105c7.1074,0,9.2402,12.6758,9.2402,26.6563
		c0,16.2295-2.4882,28.0762-9.123,28.0762c-6.2793,0-9.7148-9.2403-9.7148-27.3663
		C134.3946,205.799,137.8301,195.6105,143.9922,195.6105z"/>
	<rect x="7.3867" y="222.9133" width="53.5157" height="53.5156"/>
	<path d="M8.1602,117.4294c0.1152,0,0.2285-0.0025,0.3437-0.0073c4.4141-0.1866,7.8418-3.917,7.6543-8.3316
		C16.0528,106.5666,16,104.1476,16,101.8283c-0.0019-14.727,2.0274-25.4546,4.8574-33.1753
		c3.6778-9.896,8.4414-14.9433,12.709-17.8598c-4.0449,16.3916-10.1367,42.8037-10.1367,53.2001
		c0,0.4737,0.043,0.9341,0.1211,1.3819V205.884c0,6.83,5.5371,12.3633,12.3633,12.3633c6.8281,0,12.3652-5.5333,12.3652-12.3633
		v-79.2754c3.1778,4.5273,9.0996,6.5508,14.5371,4.5508h-0.0019l20.9472-7.7115l11.5743,39.4966
		c1.5976,5.4527,6.5839,8.9893,11.9921,8.9898c1.1641,0,2.3457-0.1636,3.5196-0.5069c6.625-1.9428,10.4219-8.8857,8.4804-15.5112
		l-15.3359-52.3355c-0.9258-3.1542-3.0254-5.7656-5.873-7.3647c-0.7715,0.502-1.5645,0.9902-2.4024,1.4531
		c-8.1933,4.4981-19.1406,7.2676-34.4531,8.7188c-0.3184,0.0312-0.627,0.0429-0.9356,0.0429c-5.1933,0-9.4707-3.9023-9.9531-9.0761
		c-0.248-2.6582,0.5567-5.2539,2.2637-7.3106c1.7051-2.0566,4.1094-3.3261,6.7676-3.5722
		c9.3164-0.8575,17.1211-2.4024,22.5742-4.461c0.4355-0.1635,0.8398-0.3271,1.2305-0.4902l3.7949-18.6338
		c1.5117,1.9629,2.8887,4.0371,3.8613,6.002c0.4649,0.9277,0.8281,1.8173,1.1035,2.6484c0.4278,1.3022,0.6309,2.4575,0.6192,3.3657
		c0,0.2866-0.0176,0.5659-0.0528,0.8482c-0.1367,0.9218-0.3965,1.6582-1.125,2.6484c-1.08,1.4551-3.584,3.5508-8.7246,5.4805
		c-5.1035,1.9316-12.6738,3.623-23.0957,4.5839c-4.4004,0.4083-7.6347,4.3086-7.2246,8.7051
		c0.3848,4.1485,3.875,7.2617,7.9609,7.2617c0.2461,0,0.4942-0.0117,0.7461-0.0351c15.1836-1.4375,25.8594-4.1875,33.6739-8.4746
		c3.8886-2.1543,7.0781-4.7656,9.4336-7.8809c2.3574-3.0996,3.7734-6.6992,4.2226-10.2109c0.002-0.0054,0-0.0108,0.002-0.0161
		c0-0.0034,0-0.0064,0.0019-0.0093c0.1211-0.9629,0.1856-1.9321,0.1836-2.9009c-0.0058-1.5591-0.1719-3.0571-0.4394-4.5083
		c-0.627-3.4209-1.875-6.5522-3.3477-9.3926c-3.1875-6.0595-7.5195-11.0478-11.0742-14.7143
		c-1.4746-1.5108-2.8164-2.7788-3.9004-3.7617c-4.0156,2.8315-8.8809,4.4838-14.0508,4.4838c-1.6426,0-3.2949-0.1699-4.918-0.5
		c-6.4121-1.3046-11.9296-5.0292-15.541-10.4863c-0.7675-1.1616-1.4238-2.374-1.9785-3.6221l-7.1445-1.455
		c-0.7969-0.1626-1.5879-0.1944-2.3555-0.1138c-3.4648,0.1226-13.873,1.2813-23.9199,10.3921
		C14.5196,46.1291,9.4414,53.2697,5.834,63.1511C2.2149,73.0417,0.002,85.6472,0,101.8283c0,2.5581,0.0547,5.2017,0.1738,7.938
		C0.3555,114.0661,3.8965,117.4294,8.1602,117.4294z"/>
	<path d="M71.2617,44.5519c12.1758,2.4805,24.0586-5.3789,26.5391-17.5566c2.4785-12.1758-5.3809-24.0576-17.5566-26.5381
		C68.0684-2.0233,56.1856,5.8381,53.7051,18.0139C51.2246,30.1916,59.086,42.0715,71.2617,44.5519z"/>
</g>
</svg>
